# File created by Blade
# Date/Time:  Wed Jan 21 16:14:13 2015
# Frame Rate: 120.000 fps
#------------------------------------------------------
:FULLY-SPECIFIED
:DEGREES
134
root 18.386978 35.671434 -19.801112 -168.806277 -1.917875 -179.194593
Spine -24.614515 0.580398 1.002015
Head 12.702391 -0.968206 -0.426681
LeftShoulder -4.368233 -60.105261 41.526029
LeftArm 59.525620 -19.162819 -7.646311
LeftForeArm -5.525004 -0.000000 10.265237
LeftHand 4.765919 -0.000000 18.068258
LeftHandThumb1 -26.253704 0.000000 33.147579
RightShoulder -4.724089 16.232378 -36.327577
RightArm 50.511929 56.309406 -3.281937
RightForeArm -35.631513 -0.000000 16.374984
RightHand -1.399728 -0.000000 -26.956699
RightHandThumb1 -24.326973 -0.000000 -32.862282
LeftUpLeg -4.341495 8.313870 -1.002433
LeftLeg -4.824191 -0.000000 0.000000
LeftFoot -19.837988 25.912596 -12.151828
LeftToeBase 25.674284 -0.000000 -0.000000
RightUpLeg -5.493756 -5.287243 1.554537
RightLeg -1.951463 -0.000000 0.000000
RightFoot -21.439953 -28.389322 15.450841
RightToeBase 23.349455 -0.000000 -0.000000
135
root 18.388485 35.672085 -19.794084 -168.781757 -1.901551 -179.194799
Spine -24.609614 0.603671 1.021226
Head 12.701192 -0.942685 -0.432449
LeftShoulder -4.363161 -60.095524 41.533356
LeftArm 59.199064 -19.231850 -7.471500
LeftForeArm -5.300300 -0.000000 9.864319
LeftHand 4.944798 -0.000000 18.023433
LeftHandThumb1 -26.253704 0.000000 33.147579
RightShoulder -4.743772 16.220017 -36.410125
RightArm 50.465392 56.447492 -3.177776
RightForeArm -35.438411 -0.000000 15.887071
RightHand -1.152985 -0.000000 -26.959804
RightHandThumb1 -24.326973 -0.000000 -32.862282
LeftUpLeg -4.371951 8.321620 -1.006450
LeftLeg -4.831823 -0.000000 0.000000
LeftFoot -19.808712 25.913438 -12.136327
LeftToeBase 25.619637 -0.000000 -0.000000
RightUpLeg -5.524428 -5.270582 1.557630
RightLeg -1.965919 -0.000000 0.000000
RightFoot -21.416376 -28.414506 15.426270
RightToeBase 23.349691 -0.000000 -0.000000
136
root 18.390287 35.673125 -19.787768 -168.770754 -1.902700 -179.197253
Spine -24.590401 0.619299 1.043571
Head 12.700314 -0.908629 -0.456223
LeftShoulder -4.327382 -60.033595 41.467025
LeftArm 58.829240 -19.289806 -7.203127
LeftForeArm -5.034709 -0.000000 9.435899
LeftHand 4.999133 0.000000 18.295032
LeftHandThumb1 -26.253704 0.000000 33.147579
RightShoulder -4.771691 16.260947 -36.503194
RightArm 50.264072 56.448951 -3.198029
RightForeArm -35.343155 -0.000000 15.366214
RightHand -0.860262 0.000000 -27.023632
RightHandThumb1 -24.326973 -0.000000 -32.862282
LeftUpLeg -4.393726 8.299068 -1.007779
LeftLeg -4.831384 -0.000000 0.000000
LeftFoot -19.805596 25.936722 -12.139047
LeftToeBase 25.660192 -0.000000 -0.000000
RightUpLeg -5.547737 -5.269833 1.560600
RightLeg -1.960804 -0.000000 0.000000
RightFoot -21.416806 -28.404805 15.461209
RightToeBase 23.281043 -0.000000 -0.000000
137
root 18.391269 35.674246 -19.782482 -168.771773 -1.908772 -179.206254
Spine -24.545210 0.626043 1.062618
Head 12.654651 -0.862373 -0.459635
LeftShoulder -4.414470 -60.023764 41.509101
LeftArm 58.362073 -19.255572 -6.943122
LeftForeArm -4.300729 0.000000 9.084998
LeftHand 5.224610 -0.000000 18.159733
LeftHandThumb1 -26.253704 0.000000 33.147579
RightShoulder -4.843011 16.312512 -36.599336
RightArm 49.878770 56.362690 -3.354223
RightForeArm -35.183825 0.000000 14.855573
RightHand -0.634876 -0.000000 -26.888797
RightHandThumb1 -24.326973 -0.000000 -32.862282
LeftUpLeg -4.404616 8.261741 -1.010614
LeftLeg -4.823913 -0.000000 0.000000
LeftFoot -19.783217 25.964584 -12.129288
LeftToeBase 25.665811 -0.000000 -0.000000
RightUpLeg -5.554385 -5.285517 1.555825
RightLeg -1.960951 -0.000000 0.000000
RightFoot -21.404371 -28.399546 15.444908
RightToeBase 23.328687 -0.000000 -0.000000
138
root 18.392701 35.675608 -19.777642 -168.773784 -1.914519 -179.206181
Spine -24.510506 0.642953 1.090637
Head 12.636352 -0.856148 -0.477621
LeftShoulder -4.435235 -59.953808 41.444000
LeftArm 57.825233 -19.129665 -6.436068
LeftForeArm -3.765564 -0.000000 8.647706
LeftHand 5.348767 -0.000000 18.170108
LeftHandThumb1 -26.253704 0.000000 33.147579
RightShoulder -4.885819 16.377713 -36.683921
RightArm 49.346978 56.222760 -3.625221
RightForeArm -34.828487 -0.000000 14.394677
RightHand -0.531558 -0.000000 -26.552598
RightHandThumb1 -24.326973 -0.000000 -32.862282
LeftUpLeg -4.416440 8.240438 -1.005859
LeftLeg -4.814307 -0.000000 0.000000
LeftFoot -19.771671 25.982037 -12.129470
LeftToeBase 25.656978 -0.000000 -0.000000
RightUpLeg -5.558610 -5.288031 1.559015
RightLeg -1.964953 -0.000000 0.000000
RightFoot -21.397867 -28.413608 15.459710
RightToeBase 23.314148 -0.000000 -0.000000
139
root 18.394545 35.676878 -19.771671 -168.778231 -1.909140 -179.213148
Spine -24.446828 0.662120 1.107764
Head 12.607449 -0.765103 -0.429592
LeftShoulder -4.589721 -59.860469 41.475649
LeftArm 57.255318 -18.922007 -5.877581
LeftForeArm -2.985470 -0.000000 8.133612
LeftHand 5.193315 0.000000 17.927856
LeftHandThumb1 -26.253704 0.000000 33.147579
RightShoulder -4.975609 16.406327 -36.758824
RightArm 48.558028 55.948913 -4.180814
RightForeArm -34.414374 -0.000000 13.809159
RightHand -0.450696 -0.000000 -26.607886
RightHandThumb1 -24.326973 -0.000000 -32.862282
LeftUpLeg -4.434121 8.230666 -1.008959
LeftLeg -4.785145 -0.000000 0.000000
LeftFoot -19.758950 25.979227 -12.114741
LeftToeBase 25.647776 -0.000000 -0.000000
RightUpLeg -5.566789 -5.299968 1.556320
RightLeg -1.961283 -0.000000 0.000000
RightFoot -21.386002 -28.393608 15.460349
RightToeBase 23.284869 -0.000000 -0.000000
140
root 18.396026 35.677728 -19.766293 -168.778984 -1.920238 -179.217917
Spine -24.413276 0.680456 1.122242
Head 12.580530 -0.758176 -0.419238
LeftShoulder -4.726232 -59.689755 41.472889
LeftArm 56.631905 -18.648698 -5.246228
LeftForeArm -2.409150 -0.000000 7.604069
LeftHand 5.100435 -0.000000 17.955749
LeftHandThumb1 -26.253704 0.000000 33.147579
RightShoulder -5.018679 16.379303 -36.782168
RightArm 47.735764 55.725386 -4.733456
RightForeArm -33.986509 -0.000000 13.194689
RightHand -0.017021 -0.000000 -26.372432
RightHandThumb1 -24.326973 -0.000000 -32.862282
LeftUpLeg -4.454340 8.187689 -1.006910
LeftLeg -4.761278 -0.000000 0.000000
LeftFoot -19.771001 26.000332 -12.139746
LeftToeBase 25.648958 -0.000000 -0.000000
RightUpLeg -5.579532 -5.311871 1.558172
RightLeg -1.952474 -0.000000 0.000000
RightFoot -21.379132 -28.401682 15.454857
RightToeBase 23.339232 -0.000000 -0.000000
141
root 18.397653 35.678588 -19.761682 -168.787125 -1.941027 -179.222865
Spine -24.384220 0.686054 1.135509
Head 12.546109 -0.792862 -0.452673
LeftShoulder -4.811689 -59.511544 41.438474
LeftArm 55.949271 -18.331994 -4.591458
LeftForeArm -1.677976 -0.000000 6.989724
LeftHand 5.361835 -0.000000 17.830570
LeftHandThumb1 -26.253704 0.000000 33.147579
RightShoulder -5.065646 16.392130 -36.818502
RightArm 46.972476 55.477114 -5.086195
RightForeArm -33.780162 -0.000000 12.693261
RightHand -0.008063 -0.000000 -25.913425
RightHandThumb1 -24.326973 -0.000000 -32.862282
LeftUpLeg -4.476367 8.155180 -1.004251
LeftLeg -4.721826 -0.000000 0.000000
LeftFoot -19.782994 26.004054 -12.148545
LeftToeBase 25.620108 -0.000000 -0.000000
RightUpLeg -5.587111 -5.329165 1.560212
RightLeg -1.933686 -0.000000 0.000000
RightFoot -21.392487 -28.402345 15.463962
RightToeBase 23.307682 -0.000000 -0.000000
